<svg id="Capa_1" data-name="Capa 1" xmlns="http://www.w3.org/2000/svg" viewBox="0 0 171.07 179.32"><defs><style>.cls-1{fill:#9bd855;}.cls-2{fill:#5fc133;}.cls-3{fill:#5d8233;}.cls-4{fill:#5d9a33;}.cls-5{fill:#81ce33;}</style></defs><title>addaptablesMesa de trabajo 11_svg</title><path class="cls-1" d="M142.69,80.19h0a57.94,57.94,0,0,0-13.82-21.5c-12.26-12.08-31.6-21.27-57.52-14.52a8.33,8.33,0,0,1-2.37.27,12.45,12.45,0,0,1-7.08-2.39c-11.18-8.44.42-20.86-1.34-21.5C55.32,18.65,20.24,26.82,12,55.64a14.77,14.77,0,0,0-.84,4.27c-.44,5.49,5.39,5.22,5.39,5.22H60.68l.07,0c2.86-.09,17.06-.21,30.2,5.47,19.74,8.53,24.59,26.56,24.59,37a40,40,0,0,1-2.62,14.26v0h0a40.11,40.11,0,0,1-37.47,25.8c-14.78,0-28.46-8.17-35.05-20.34-10.84-19.86-3.44-39.91,8-49.46,9.29-7.72,14.57-9,24.49-10.33C52.41,65.13,29.83,85.7,29.83,108.2a39.4,39.4,0,0,0,1.73,12.44c4.54,16.76,23.9,42.08,60.38,37.92h0c21.51-2.67,33.5-12,41.84-22.26C151.19,114.94,146.22,89,142.69,80.19Zm-107-29.27a9.12,9.12,0,1,1,9.12-9.12A9.12,9.12,0,0,1,35.69,50.92ZM37,125a44.26,44.26,0,0,1-3.93-3C34.16,123,35.64,124.06,37,125Z"/><path class="cls-1" d="M111.93,121.86v0q.65-1.71,1.15-3.49c-1.78-2.2-11.23-.34-13.21,1.07a2,2,0,0,0-.71.76,2.21,2.21,0,0,0,0,1.46,18.21,18.21,0,0,0,3.43,7.16,2,2,0,0,0,2.63.79,20.2,20.2,0,0,0,4.51-3,39.92,39.92,0,0,0,2.15-4.67Z"/><path class="cls-1" d="M70.28,74a1.39,1.39,0,0,0,.51.76A11.47,11.47,0,0,0,75,77.44,1.24,1.24,0,0,0,76.71,77c.58-.75,3.48-6.88.5-8.56-1.57-.89-6.21,3.54-6.8,5A1.25,1.25,0,0,0,70.28,74Z"/><path class="cls-1" d="M159.49,138.86c-1.57-3.34-11-11.79-17-13.59a54,54,0,0,1-6.77,10.95,39.64,39.64,0,0,0,5.95,14.1,3.63,3.63,0,0,0,4.94,1.1,33.58,33.58,0,0,0,12-8.4,4.08,4.08,0,0,0,1.38-2.3A3.66,3.66,0,0,0,159.49,138.86Z"/><path class="cls-2" d="M142.69,80.19c-14.81,29.74-29.79,41.67-29.79,41.67-5.53,26.8-21,36.7-21,36.7,21.52-2.66,33.52-12,41.86-22.26C151.19,114.94,146.22,89,142.69,80.19Z"/><path class="cls-3" d="M72.9,67.53C52.41,65.13,29.83,85.7,29.83,108.2a39.4,39.4,0,0,0,1.73,12.44c1.49,1.88,8.8,6.69,8.8,6.68-10.84-19.86-3.44-39.91,8-49.46C57.7,70.14,63,68.91,72.9,67.53Z"/><path class="cls-4" d="M75.42,147.67c-14.78,0-28.46-8.17-35.05-20.34-3.31-2.31-6.6-4.3-8.8-6.68,4.54,16.76,23.9,42.08,60.38,37.92,0,0,16-9.61,21-36.7h0A40.11,40.11,0,0,1,75.42,147.67Z"/><path class="cls-5" d="M142.69,80.19S122.4,47.49,60.21,65.13c0,0,16-.91,30.73,5.45,19.74,8.53,24.59,26.56,24.59,37a40,40,0,0,1-2.62,14.26v0S127.88,109.93,142.69,80.19Z"/></svg>